<!--?xml version="1.0" standalone="no"?-->
              <svg id="sw-js-blob-svg" viewBox="0 0 100 100" xmlns="http://www.w3.org/2000/svg" version="1.1">
                    <defs> 
                        <linearGradient id="sw-gradient" x1="0" x2="1" y1="1" y2="0">
                            <stop id="stop1" stop-color="rgba(230.781, 215.013, 228.368, 1)" offset="0%"></stop>
                            <stop id="stop2" stop-color="rgba(214.843, 207.978, 196.646, 0.08)" offset="100%"></stop>
                        </linearGradient>
                    </defs>
                <path fill="url(#sw-gradient)" d="M18.1,-24.4C24.6,-20.2,31.8,-16.4,36.1,-10.1C40.3,-3.8,41.7,5.1,38.1,11.2C34.5,17.2,25.9,20.5,18.7,25.1C11.5,29.8,5.8,35.9,-0.3,36.2C-6.3,36.6,-12.5,31.2,-18.9,26.3C-25.2,21.4,-31.7,16.9,-34.4,10.6C-37.2,4.4,-36.3,-3.5,-32.8,-9.6C-29.4,-15.6,-23.4,-19.8,-17.5,-24.2C-11.6,-28.5,-5.8,-33.1,0,-33.1C5.8,-33.1,11.6,-28.5,18.1,-24.4Z" width="100%" height="100%" transform="translate(50 50)" stroke-width="0" style="transition: all 0.3s ease 0s;" stroke="url(#sw-gradient)"></path>
              </svg>